<!DOCTYPE svg PUBLIC "-//W3C//DTD SVG 1.1//EN" "http://www.w3.org/Graphics/SVG/1.1/DTD/svg11.dtd">
<!-- Uploaded to: SVG Repo, www.svgrepo.com, Transformed by: SVG Repo Mixer Tools -->
<svg width="800px" height="800px" viewBox="0 0 36 36" xmlns="http://www.w3.org/2000/svg" xmlns:xlink="http://www.w3.org/1999/xlink" aria-hidden="true" role="img" class="iconify iconify--twemoji" preserveAspectRatio="xMidYMid meet" fill="#000000">
<g id="SVGRepo_bgCarrier" stroke-width="0"/>
<g id="SVGRepo_tracerCarrier" stroke-linecap="round" stroke-linejoin="round"/>
<g id="SVGRepo_iconCarrier">
<path fill="#2065e6" d="M36 11a2 2 0 0 0-4 0s-.011 3.285-3 3.894V12c0-6.075-4.925-11-11-11S7 5.925 7 12v3.237C1.778 16.806 0 23.231 0 27a2 2 0 0 0 4 0s.002-3.54 3.336-3.958C7.838 27.883 8.954 33 11 33h1c4 0 3 2 7 2s3-2 6-2s2.395 2 6 2a3 3 0 0 0 3-3c0-.675-2.274-4.994-3.755-9.268C35.981 21.348 36 14.58 36 11z"/>
<circle fill="#292F33" cx="13" cy="12" r="2"/>
<circle fill="#292F33" cx="23" cy="12" r="4"/>
<circle fill="#ffffff" cx="23" cy="13" r="2"/>
<path fill="#292F33" d="M22.192 19.491c2.65 1.987 3.591 5.211 2.1 7.199c-1.491 1.988-4.849 1.988-7.5 0c-2.65-1.987-3.591-5.211-2.1-7.199c1.492-1.989 4.849-1.988 7.5 0z"/>
</g>
</svg>